<?xml version="1.0" encoding="UTF-8"?>
<svg id="Camada_2" data-name="Camada 2" xmlns="http://www.w3.org/2000/svg" viewBox="0 0 90.07 133.67">
  <defs>
    <style>
      .cls-1 {
        fill: #e94e1b;
        stroke-width: 0px;
      }
    </style>
  </defs>
  <g id="Camada_1-2" data-name="Camada 1">
    <g>
      <path class="cls-1" d="M0,78.62H0C0,35.2,35.2,0,78.62,0h0c6.32,0,11.44,5.12,11.44,11.44v15.3c0,8.44-8.82,13.97-16.42,10.3L19.92,11.08c-5.42-2.62-11.12,3.04-8.53,8.48l28.93,60.76c2.15,4.52-1.14,9.74-6.15,9.74H11.44C5.12,90.07,0,84.94,0,78.62Z"/>
      <path class="cls-1" d="M90.07,55.04h0c0,43.42-35.2,78.62-78.62,78.62h0c-6.32,0-11.44-5.12-11.44-11.44v-15.3c0-8.44,8.82-13.97,16.42-10.3l53.73,25.96c5.42,2.62,11.12-3.04,8.53-8.48l-29.17-61.27c-2.04-4.28,1.08-9.23,5.83-9.23h23.29c6.32,0,11.44,5.12,11.44,11.44Z"/>
    </g>
  </g>
</svg>